<svg width="100" height="40" viewBox="0 0 100 40" fill="none" xmlns="http://www.w3.org/2000/svg">
<rect x="0.5" y="0.5" width="99" height="39" rx="19.5" fill="#FF5F5F" stroke="#FF5F5F"/>
<path d="M24.4449 23.834V25H19.9156V23.834H24.4449ZM20.3316 16.4688V25H18.8609V16.4688H20.3316ZM23.8531 20.0312V21.1797H19.9156V20.0312H23.8531ZM24.4156 16.4688V17.6406H19.9156V16.4688H24.4156ZM27.0259 20.0137V25H25.6138V18.6602H26.9438L27.0259 20.0137ZM26.7739 21.5957L26.3169 21.5898C26.3208 21.1406 26.3833 20.7285 26.5044 20.3535C26.6294 19.9785 26.8013 19.6562 27.02 19.3867C27.2427 19.1172 27.5083 18.9102 27.8169 18.7656C28.1255 18.6172 28.4692 18.543 28.8481 18.543C29.1528 18.543 29.4282 18.5859 29.6743 18.6719C29.9243 18.7539 30.1372 18.8887 30.313 19.0762C30.4927 19.2637 30.6294 19.5078 30.7231 19.8086C30.8169 20.1055 30.8638 20.4707 30.8638 20.9043V25H29.4458V20.8984C29.4458 20.5938 29.4009 20.3535 29.311 20.1777C29.2251 19.998 29.0981 19.8711 28.9302 19.7969C28.7661 19.7188 28.561 19.6797 28.3149 19.6797C28.0727 19.6797 27.8559 19.7305 27.6645 19.832C27.4731 19.9336 27.311 20.0723 27.1782 20.248C27.0493 20.4238 26.9497 20.627 26.8794 20.8574C26.8091 21.0879 26.7739 21.334 26.7739 21.5957ZM36.2923 23.6875V16H37.7103V25H36.4271L36.2923 23.6875ZM32.1673 21.9004V21.7773C32.1673 21.2969 32.224 20.8594 32.3373 20.4648C32.4505 20.0664 32.6146 19.7246 32.8295 19.4395C33.0443 19.1504 33.306 18.9297 33.6146 18.7773C33.9232 18.6211 34.2709 18.543 34.6576 18.543C35.0404 18.543 35.3763 18.6172 35.6654 18.7656C35.9545 18.9141 36.2005 19.127 36.4037 19.4043C36.6068 19.6777 36.7689 20.0059 36.89 20.3887C37.0111 20.7676 37.097 21.1895 37.1478 21.6543V22.0469C37.097 22.5 37.0111 22.9141 36.89 23.2891C36.7689 23.6641 36.6068 23.9883 36.4037 24.2617C36.2005 24.5352 35.9525 24.7461 35.6595 24.8945C35.3705 25.043 35.0326 25.1172 34.6459 25.1172C34.263 25.1172 33.9173 25.0371 33.6088 24.877C33.3041 24.7168 33.0443 24.4922 32.8295 24.2031C32.6146 23.9141 32.4505 23.5742 32.3373 23.1836C32.224 22.7891 32.1673 22.3613 32.1673 21.9004ZM33.5795 21.7773V21.9004C33.5795 22.1895 33.6048 22.459 33.6556 22.709C33.7103 22.959 33.7943 23.1797 33.9076 23.3711C34.0209 23.5586 34.1673 23.707 34.347 23.8164C34.5306 23.9219 34.7494 23.9746 35.0033 23.9746C35.3236 23.9746 35.5873 23.9043 35.7943 23.7637C36.0013 23.623 36.1634 23.4336 36.2806 23.1953C36.4017 22.9531 36.4838 22.6836 36.5267 22.3867V21.3262C36.5033 21.0957 36.4545 20.8809 36.3802 20.6816C36.3099 20.4824 36.2142 20.3086 36.0931 20.1602C35.972 20.0078 35.8216 19.8906 35.642 19.8086C35.4662 19.7227 35.2572 19.6797 35.015 19.6797C34.7572 19.6797 34.5384 19.7344 34.3588 19.8438C34.1791 19.9531 34.0306 20.1035 33.9134 20.2949C33.8002 20.4863 33.7162 20.709 33.6615 20.9629C33.6068 21.2168 33.5795 21.4883 33.5795 21.7773ZM47.0441 22.8027C47.0441 22.627 47.0167 22.4707 46.962 22.334C46.9113 22.1973 46.8195 22.0723 46.6866 21.959C46.5538 21.8457 46.3663 21.7363 46.1241 21.6309C45.8859 21.5215 45.5812 21.4102 45.2101 21.2969C44.8038 21.1719 44.4288 21.0332 44.0851 20.8809C43.7452 20.7246 43.4484 20.5449 43.1945 20.3418C42.9405 20.1348 42.7433 19.8984 42.6027 19.6328C42.462 19.3633 42.3917 19.0527 42.3917 18.7012C42.3917 18.3535 42.464 18.0371 42.6085 17.752C42.757 17.4668 42.9659 17.2207 43.2355 17.0137C43.5089 16.8027 43.8312 16.6406 44.2023 16.5273C44.5734 16.4102 44.9835 16.3516 45.4327 16.3516C46.0655 16.3516 46.6105 16.4688 47.0675 16.7031C47.5284 16.9375 47.882 17.252 48.128 17.6465C48.378 18.041 48.503 18.4766 48.503 18.9531H47.0441C47.0441 18.6719 46.9835 18.4238 46.8624 18.209C46.7452 17.9902 46.5655 17.8184 46.3234 17.6934C46.0851 17.5684 45.7823 17.5059 45.4152 17.5059C45.0675 17.5059 44.7784 17.5586 44.548 17.6641C44.3175 17.7695 44.1456 17.9121 44.0323 18.0918C43.9191 18.2715 43.8624 18.4746 43.8624 18.7012C43.8624 18.8613 43.8995 19.0078 43.9738 19.1406C44.048 19.2695 44.1613 19.3906 44.3136 19.5039C44.4659 19.6133 44.6573 19.7168 44.8878 19.8145C45.1183 19.9121 45.3898 20.0059 45.7023 20.0957C46.1749 20.2363 46.587 20.3926 46.9386 20.5645C47.2902 20.7324 47.5831 20.9238 47.8175 21.1387C48.0519 21.3535 48.2277 21.5977 48.3448 21.8711C48.462 22.1406 48.5206 22.4473 48.5206 22.791C48.5206 23.1504 48.4484 23.4746 48.3038 23.7637C48.1593 24.0488 47.9523 24.293 47.6827 24.4961C47.4171 24.6953 47.0968 24.8496 46.7218 24.959C46.3507 25.0645 45.9366 25.1172 45.4796 25.1172C45.0695 25.1172 44.6652 25.0625 44.2667 24.9531C43.8722 24.8438 43.5128 24.6777 43.1886 24.4551C42.8644 24.2285 42.6066 23.9473 42.4152 23.6113C42.2238 23.2715 42.128 22.875 42.128 22.4219H43.5988C43.5988 22.6992 43.6456 22.9355 43.7394 23.1309C43.837 23.3262 43.9718 23.4863 44.1437 23.6113C44.3155 23.7324 44.5148 23.8223 44.7413 23.8809C44.9718 23.9395 45.2179 23.9688 45.4796 23.9688C45.8234 23.9688 46.1105 23.9199 46.3409 23.8223C46.5753 23.7246 46.7511 23.5879 46.8683 23.4121C46.9855 23.2363 47.0441 23.0332 47.0441 22.8027ZM52.5957 25.1172C52.127 25.1172 51.7031 25.041 51.3242 24.8887C50.9492 24.7324 50.6289 24.5156 50.3633 24.2383C50.1016 23.9609 49.9004 23.6348 49.7598 23.2598C49.6191 22.8848 49.5488 22.4805 49.5488 22.0469V21.8125C49.5488 21.3164 49.6211 20.8672 49.7656 20.4648C49.9102 20.0625 50.1113 19.7188 50.3691 19.4336C50.627 19.1445 50.9316 18.9238 51.2832 18.7715C51.6348 18.6191 52.0156 18.543 52.4258 18.543C52.8789 18.543 53.2754 18.6191 53.6152 18.7715C53.9551 18.9238 54.2363 19.1387 54.459 19.416C54.6855 19.6895 54.8535 20.0156 54.9629 20.3945C55.0762 20.7734 55.1328 21.1914 55.1328 21.6484V22.252H50.2344V21.2383H53.7383V21.127C53.7305 20.873 53.6797 20.6348 53.5859 20.4121C53.4961 20.1895 53.3574 20.0098 53.1699 19.873C52.9824 19.7363 52.7324 19.668 52.4199 19.668C52.1855 19.668 51.9766 19.7188 51.793 19.8203C51.6133 19.918 51.4629 20.0605 51.3418 20.248C51.2207 20.4355 51.127 20.6621 51.0605 20.9277C50.998 21.1895 50.9668 21.4844 50.9668 21.8125V22.0469C50.9668 22.3242 51.0039 22.582 51.0781 22.8203C51.1562 23.0547 51.2695 23.2598 51.418 23.4355C51.5664 23.6113 51.7461 23.75 51.957 23.8516C52.168 23.9492 52.4082 23.998 52.6777 23.998C53.0176 23.998 53.3203 23.9297 53.5859 23.793C53.8516 23.6562 54.082 23.4629 54.2773 23.2129L55.0215 23.9336C54.8848 24.1328 54.707 24.3242 54.4883 24.5078C54.2695 24.6875 54.002 24.834 53.6855 24.9473C53.373 25.0605 53.0098 25.1172 52.5957 25.1172ZM59.911 23.2832C59.911 23.1426 59.8759 23.0156 59.8055 22.9023C59.7352 22.7852 59.6005 22.6797 59.4013 22.5859C59.2059 22.4922 58.9169 22.4062 58.5341 22.3281C58.1981 22.2539 57.8895 22.166 57.6083 22.0645C57.3309 21.959 57.0927 21.832 56.8934 21.6836C56.6942 21.5352 56.5399 21.3594 56.4305 21.1562C56.3212 20.9531 56.2665 20.7188 56.2665 20.4531C56.2665 20.1953 56.3231 19.9512 56.4364 19.7207C56.5497 19.4902 56.7118 19.2871 56.9227 19.1113C57.1337 18.9355 57.3895 18.7969 57.6903 18.6953C57.995 18.5938 58.3348 18.543 58.7098 18.543C59.2411 18.543 59.6962 18.6328 60.0751 18.8125C60.4579 18.9883 60.7509 19.2285 60.954 19.5332C61.1571 19.834 61.2587 20.1738 61.2587 20.5527H59.8466C59.8466 20.3848 59.8036 20.2285 59.7177 20.084C59.6356 19.9355 59.5106 19.8164 59.3427 19.7266C59.1747 19.6328 58.9638 19.5859 58.7098 19.5859C58.4677 19.5859 58.2665 19.625 58.1063 19.7031C57.9501 19.7773 57.8329 19.875 57.7548 19.9961C57.6805 20.1172 57.6434 20.25 57.6434 20.3945C57.6434 20.5 57.663 20.5957 57.702 20.6816C57.745 20.7637 57.8153 20.8398 57.913 20.9102C58.0106 20.9766 58.1434 21.0391 58.3114 21.0977C58.4833 21.1562 58.6981 21.2129 58.9559 21.2676C59.4403 21.3691 59.8563 21.5 60.204 21.6602C60.5555 21.8164 60.8251 22.0195 61.0126 22.2695C61.2001 22.5156 61.2938 22.8281 61.2938 23.207C61.2938 23.4883 61.2333 23.7461 61.1122 23.9805C60.995 24.2109 60.8231 24.4121 60.5966 24.584C60.37 24.752 60.0985 24.8828 59.7821 24.9766C59.4696 25.0703 59.118 25.1172 58.7274 25.1172C58.1532 25.1172 57.6669 25.0156 57.2684 24.8125C56.87 24.6055 56.5673 24.3418 56.3602 24.0215C56.1571 23.6973 56.0555 23.3613 56.0555 23.0137H57.4208C57.4364 23.2754 57.5087 23.4844 57.6376 23.6406C57.7704 23.793 57.9345 23.9043 58.1298 23.9746C58.329 24.041 58.5341 24.0742 58.745 24.0742C58.9989 24.0742 59.2118 24.041 59.3837 23.9746C59.5555 23.9043 59.6864 23.8105 59.7763 23.6934C59.8661 23.5723 59.911 23.4355 59.911 23.2832ZM66.2068 23.2832C66.2068 23.1426 66.1716 23.0156 66.1013 22.9023C66.031 22.7852 65.8963 22.6797 65.697 22.5859C65.5017 22.4922 65.2127 22.4062 64.8298 22.3281C64.4939 22.2539 64.1853 22.166 63.9041 22.0645C63.6267 21.959 63.3884 21.832 63.1892 21.6836C62.99 21.5352 62.8357 21.3594 62.7263 21.1562C62.617 20.9531 62.5623 20.7188 62.5623 20.4531C62.5623 20.1953 62.6189 19.9512 62.7322 19.7207C62.8455 19.4902 63.0076 19.2871 63.2185 19.1113C63.4295 18.9355 63.6853 18.7969 63.9861 18.6953C64.2908 18.5938 64.6306 18.543 65.0056 18.543C65.5369 18.543 65.992 18.6328 66.3709 18.8125C66.7537 18.9883 67.0466 19.2285 67.2498 19.5332C67.4529 19.834 67.5545 20.1738 67.5545 20.5527H66.1423C66.1423 20.3848 66.0994 20.2285 66.0134 20.084C65.9314 19.9355 65.8064 19.8164 65.6384 19.7266C65.4705 19.6328 65.2595 19.5859 65.0056 19.5859C64.7634 19.5859 64.5623 19.625 64.4021 19.7031C64.2459 19.7773 64.1287 19.875 64.0505 19.9961C63.9763 20.1172 63.9392 20.25 63.9392 20.3945C63.9392 20.5 63.9588 20.5957 63.9978 20.6816C64.0408 20.7637 64.1111 20.8398 64.2088 20.9102C64.3064 20.9766 64.4392 21.0391 64.6072 21.0977C64.7791 21.1562 64.9939 21.2129 65.2517 21.2676C65.7361 21.3691 66.1521 21.5 66.4998 21.6602C66.8513 21.8164 67.1209 22.0195 67.3084 22.2695C67.4959 22.5156 67.5896 22.8281 67.5896 23.207C67.5896 23.4883 67.5291 23.7461 67.408 23.9805C67.2908 24.2109 67.1189 24.4121 66.8923 24.584C66.6658 24.752 66.3943 24.8828 66.0779 24.9766C65.7654 25.0703 65.4138 25.1172 65.0232 25.1172C64.449 25.1172 63.9627 25.0156 63.5642 24.8125C63.1658 24.6055 62.863 24.3418 62.656 24.0215C62.4529 23.6973 62.3513 23.3613 62.3513 23.0137H63.7166C63.7322 23.2754 63.8045 23.4844 63.9334 23.6406C64.0662 23.793 64.2302 23.9043 64.4255 23.9746C64.6248 24.041 64.8298 24.0742 65.0408 24.0742C65.2947 24.0742 65.5076 24.041 65.6795 23.9746C65.8513 23.9043 65.9822 23.8105 66.072 23.6934C66.1619 23.5723 66.2068 23.4355 66.2068 23.2832ZM70.4577 18.6602V25H69.0397V18.6602H70.4577ZM68.9459 16.9961C68.9459 16.7812 69.0163 16.6035 69.1569 16.4629C69.3014 16.3184 69.5006 16.2461 69.7545 16.2461C70.0045 16.2461 70.2018 16.3184 70.3463 16.4629C70.4909 16.6035 70.5631 16.7812 70.5631 16.9961C70.5631 17.207 70.4909 17.3828 70.3463 17.5234C70.2018 17.6641 70.0045 17.7344 69.7545 17.7344C69.5006 17.7344 69.3014 17.6641 69.1569 17.5234C69.0163 17.3828 68.9459 17.207 68.9459 16.9961ZM71.855 21.9004V21.7656C71.855 21.3086 71.9214 20.8848 72.0542 20.4941C72.187 20.0996 72.3784 19.7578 72.6284 19.4688C72.8823 19.1758 73.1909 18.9492 73.5542 18.7891C73.9214 18.625 74.3355 18.543 74.7964 18.543C75.2613 18.543 75.6753 18.625 76.0386 18.7891C76.4058 18.9492 76.7163 19.1758 76.9702 19.4688C77.2241 19.7578 77.4175 20.0996 77.5503 20.4941C77.6831 20.8848 77.7495 21.3086 77.7495 21.7656V21.9004C77.7495 22.3574 77.6831 22.7812 77.5503 23.1719C77.4175 23.5625 77.2241 23.9043 76.9702 24.1973C76.7163 24.4863 76.4077 24.7129 76.0445 24.877C75.6812 25.0371 75.2691 25.1172 74.8081 25.1172C74.3433 25.1172 73.9273 25.0371 73.5601 24.877C73.1968 24.7129 72.8882 24.4863 72.6343 24.1973C72.3804 23.9043 72.187 23.5625 72.0542 23.1719C71.9214 22.7812 71.855 22.3574 71.855 21.9004ZM73.2671 21.7656V21.9004C73.2671 22.1855 73.2964 22.4551 73.355 22.709C73.4136 22.9629 73.5054 23.1855 73.6304 23.377C73.7554 23.5684 73.9156 23.7188 74.1109 23.8281C74.3062 23.9375 74.5386 23.9922 74.8081 23.9922C75.0698 23.9922 75.2964 23.9375 75.4878 23.8281C75.6831 23.7188 75.8433 23.5684 75.9683 23.377C76.0933 23.1855 76.1851 22.9629 76.2437 22.709C76.3062 22.4551 76.3374 22.1855 76.3374 21.9004V21.7656C76.3374 21.4844 76.3062 21.2188 76.2437 20.9688C76.1851 20.7148 76.0913 20.4902 75.9624 20.2949C75.8374 20.0996 75.6773 19.9473 75.482 19.8379C75.2906 19.7246 75.062 19.668 74.7964 19.668C74.5308 19.668 74.3003 19.7246 74.105 19.8379C73.9136 19.9473 73.7554 20.0996 73.6304 20.2949C73.5054 20.4902 73.4136 20.7148 73.355 20.9688C73.2964 21.2188 73.2671 21.4844 73.2671 21.7656ZM80.4535 20.0137V25H79.0414V18.6602H80.3715L80.4535 20.0137ZM80.2016 21.5957L79.7445 21.5898C79.7484 21.1406 79.8109 20.7285 79.932 20.3535C80.057 19.9785 80.2289 19.6562 80.4477 19.3867C80.6703 19.1172 80.9359 18.9102 81.2445 18.7656C81.5531 18.6172 81.8969 18.543 82.2758 18.543C82.5805 18.543 82.8559 18.5859 83.102 18.6719C83.352 18.7539 83.5648 18.8887 83.7406 19.0762C83.9203 19.2637 84.057 19.5078 84.1508 19.8086C84.2445 20.1055 84.2914 20.4707 84.2914 20.9043V25H82.8734V20.8984C82.8734 20.5938 82.8285 20.3535 82.7387 20.1777C82.6527 19.998 82.5258 19.8711 82.3578 19.7969C82.1938 19.7188 81.9887 19.6797 81.7426 19.6797C81.5004 19.6797 81.2836 19.7305 81.0922 19.832C80.9008 19.9336 80.7387 20.0723 80.6059 20.248C80.477 20.4238 80.3773 20.627 80.307 20.8574C80.2367 21.0879 80.2016 21.334 80.2016 21.5957Z" fill="white"/>
</svg>
